<svg xmlns="http://www.w3.org/2000/svg" viewBox="0 0 640 640" role="img" aria-label="MTAK logo pattern">
  <rect width="640" height="640" fill="#f4f4f1"/>
  <g fill="#050505">
    <path d="M257 42c73 0 180 92 180 185 0 61-38 102-80 136-17 14-25 35-25 56 0 28-14 43-44 43-21 0-41-10-59-20-23-12-54-20-86-20-80 0-139-45-139-122 0-40 16-77 42-103 14-14 21-34 21-55 0-47 30-89 79-89 23 0 45 9 65 18 12 6 28 10 46 10z"/>
    <path d="M480 58c63 0 125 53 125 119 0 29-10 59-28 83-9 12-15 26-15 40 0 50-34 81-85 81-23 0-42-6-60-18-17-11-41-17-70-17-53 0-93-31-93-81 0-31 15-57 37-76 11-10 18-25 18-40 0-52 42-91 98-91 16 0 31 3 46 10 10 4 18 6 27 6z"/>
    <path d="M66 125c44 0 92 40 92 93 0 18-6 37-17 52-8 10-12 22-12 33 0 37-28 63-67 63-15 0-28-4-39-12-11-7-25-11-42-11C-20 343-48 317-48 282c0-20 10-39 25-53 8-8 13-19 13-30 0-42 33-74 76-74z"/>
    <path d="M468 363c58 0 126 58 126 132 0 31-12 59-32 81-10 12-16 26-16 41 0 40-30 68-74 68-18 0-35-5-49-15-15-10-34-15-57-15-63 0-109-39-109-95 0-31 13-57 34-76 12-11 18-24 18-39 0-49 38-82 94-82 17 0 32 3 47 10 7 3 12 4 18 4z"/>
    <path d="M142 380c69 0 142 61 142 139 0 40-15 72-39 97-12 13-18 29-18 45 0 26-17 44-49 44-18 0-34-7-47-15-19-12-43-19-68-19-74 0-128-45-128-112 0-32 12-63 34-86 12-12 18-28 18-44 0-29 12-53 33-67 18-12 39-17 61-17 16 0 30 3 44 10 6 3 11 5 17 5z"/>
    <path d="M345 390c55 0 112 52 112 112 0 25-9 47-24 65-10 11-15 24-15 38 0 38-28 63-67 63-15 0-29-5-40-13-12-9-28-14-47-14-53 0-92-34-92-84 0-25 10-47 28-64 9-9 14-22 14-35 0-41 34-68 80-68 14 0 28 3 39 9 4 2 8 3 12 3z"/>
    <path d="M525 177c31 0 54 25 54 55 0 31-23 56-54 56-29 0-53-25-53-56 0-30 24-55 53-55z"/>
    <path d="M383 99c30 0 54 24 54 54 0 30-24 54-54 54-29 0-53-24-53-54 0-30 24-54 53-54z"/>
    <path d="M108 452c28 0 50 22 50 51 0 28-22 51-50 51-29 0-52-23-52-51 0-29 23-51 52-51z"/>
    <path d="M592 452c20 0 36 16 36 37 0 20-16 36-36 36-21 0-37-16-37-36 0-21 16-37 37-37z"/>
  </g>
  <g fill="#f4f4f1">
    <ellipse cx="230" cy="255" rx="96" ry="110"/>
    <ellipse cx="482" cy="213" rx="68" ry="82"/>
    <ellipse cx="126" cy="219" rx="46" ry="58"/>
    <ellipse cx="181" cy="535" rx="72" ry="83"/>
    <ellipse cx="343" cy="531" rx="66" ry="86"/>
    <ellipse cx="489" cy="532" rx="56" ry="71"/>
    <ellipse cx="566" cy="489" rx="18" ry="19"/>
    <ellipse cx="92" cy="579" rx="18" ry="19"/>
    <ellipse cx="526" cy="208" rx="16" ry="16"/>
    <ellipse cx="378" cy="117" rx="18" ry="18"/>
  </g>
</svg>
